<?xml version="1.0" encoding="UTF-8"?>
<svg id="Layer_2" data-name="Layer 2" xmlns="http://www.w3.org/2000/svg" viewBox="0 0 61.42 71.98">
  <defs>
    <style>
      .cls-1 {
        fill: #003d39;
      }
    </style>
  </defs>
  <g id="Layer_1-2" data-name="Layer 1">
    <path class="cls-1" d="M60.56,20.67c-2.95-1.75-4.64-2.75-5.69-3.29.08-.17.13-.36.12-.56l-.19-4.29c-.03-.65-.34-1.25-.85-1.66l-5.75-4.54c-.52-.41-1.19-.56-1.84-.43l-4.96,1.01c-.22.04-.41.15-.57.29l-5.21-6.54c-.5-.62-1.33-.83-2.06-.52-.73.31-1.16,1.05-1.05,1.84l2.6,19.72-16.78-3.44c-1.95-.4-3.91.79-4.46,2.71h0S.07,69.7.07,69.7c-.2.71.04,1.45.62,1.9.32.25.71.38,1.11.38.31,0,.62-.08.9-.24l44.3-25.5c1.72-.99,2.4-3.1,1.58-4.9l-6.26-13.81,17.72-3.64c.72-.15,1.26-.71,1.38-1.43.12-.72-.21-1.43-.84-1.8ZM46.76,8.31l5.6,4.42.16,3.53-11.57,8.12s-.07.08-.1.11c-.47-.78-1.14-1.42-1.95-1.83.57-2.1,2.38-8.63,3.73-13.5l4.13-.85ZM39.88,9.92c-1.15,4.13-2.02,7.28-2.61,9.43l-2.01-15.23,4.61,5.79ZM4.32,63.67c.85,1.16,1.97,1.97,3.36,2.39l-4.82,2.77,1.46-5.16ZM45.77,44.13l-34.71,19.98c-.18-.1-.39-.17-.64-.15-2.79.09-4.34-1.09-5.11-3.78l10.93-38.53c.2-.7.91-1.13,1.62-.98l17.89,3.67-11.04,4.06c-.63.23-.96.93-.73,1.57.23.63.94.96,1.57.72l9.79-3.6-8.64,11.69c-.4.54-.29,1.31.26,1.71.22.16.47.24.73.24.38,0,.74-.17.98-.5l8.23-11.14-.85,9.61c-.06.67.44,1.26,1.11,1.32.04,0,.07,0,.11,0,.62,0,1.16-.48,1.21-1.11l1.03-11.62,6.83,15.07c.3.66.05,1.42-.57,1.78ZM45.06,24.47l7.73-5.42c.12.09.25.16.4.19.23.11,1.13.58,4.59,2.62l-12.71,2.61Z"/>
  </g>
</svg>