<?xml version="1.0" encoding="UTF-8"?>
<svg id="Layer_2" data-name="Layer 2" xmlns="http://www.w3.org/2000/svg" viewBox="0 0 61.35 57.44">
  <defs>
    <style>
      .cls-1 {
        fill: #003d39;
      }
    </style>
  </defs>
  <g id="Layer_1-2" data-name="Layer 1">
    <g>
      <path class="cls-1" d="M54.89,3.25c-11.7-6.69-21.32-1.32-24.22.68-2.9-2-12.51-7.37-24.23-.68C2.23,5.66,0,9.35,0,13.93v14.67c0,9.54,10.41,22.48,30.3,28.77.12.04.25.06.38.06s.25-.02.38-.06c19.61-6.2,30.08-19.02,30.3-28.48v-15.37c-.13-4.4-2.37-7.95-6.46-10.27ZM2.54,22.74c1.87,3.37,4.75,6.72,8.35,9.71v6.23c0,1.29,1.05,2.34,2.34,2.34h1.06c1.21,0,2.2-.9,2.39-2.14l.37.03v3.22c0,2.42,1.96,4.38,4.37,4.38,1.17,0,2.27-.45,3.09-1.28.83-.82,1.29-1.92,1.29-3.11v-1.03c1.1.44,2.29.86,3.6,1.3v6.56c0,.7.57,1.27,1.27,1.27s1.27-.57,1.27-1.27v-6.56c10.72-3.55,19.8-9.62,24.95-16.67.72-.99,1.37-2,1.92-3v6.13c-.19,8.46-9.92,20.09-28.14,25.96C12.4,48.93,2.54,36.92,2.54,28.6v-5.86ZM30.68,40.16c-1.97-.64-3.87-1.35-5.64-2.12-.39-.17-.84-.13-1.2.1-.36.23-.57.63-.57,1.06v2.93c0,.5-.19.96-.54,1.3-.35.35-.81.54-1.3.54-1.01,0-1.83-.83-1.83-1.84v-3.46c0-1.3-1.06-2.35-2.35-2.35h-.78c-1.2,0-2.21.92-2.39,2.15l-.63-.03v-6.59c0-.39-.17-.75-.47-.99-3.63-2.93-6.49-6.22-8.28-9.51-1.4-2.55-2.14-5.12-2.14-7.42,0-3.61,1.79-6.54,5.17-8.47,12.38-7.06,21.75.69,22.15,1.02.47.4,1.17.4,1.64,0,.39-.33,9.82-8.07,22.14-1.02,3.28,1.86,5.07,4.67,5.18,8.12v.62c-.04,2.25-.76,4.66-2.14,7.16-4.29,7.91-14.01,14.93-26,18.8Z"/>
      <path class="cls-1" d="M42.13,4.54c-.34.03-.64.2-.85.46-.21.26-.31.59-.28.93.07.69.7,1.2,1.39,1.13.27-.02,6.54-.56,9.63,2.61,1.43,1.47,1.98,3.58,1.64,6.3-.09.69.41,1.33,1.1,1.42.05,0,.11,0,.16,0,.64,0,1.18-.48,1.26-1.11.45-3.52-.34-6.35-2.34-8.4-4-4.09-11.39-3.39-11.71-3.35Z"/>
    </g>
  </g>
</svg>