<?xml version="1.0" encoding="UTF-8"?>
<svg id="Layer_2" data-name="Layer 2" xmlns="http://www.w3.org/2000/svg" viewBox="0 0 53.52 77.58">
  <defs>
    <style>
      .cls-1 {
        fill: #003d39;
      }
    </style>
  </defs>
  <g id="Layer_1-2" data-name="Layer 1">
    <g>
      <path class="cls-1" d="M39.22,0H8.33c-.62,0-1.12.5-1.12,1.12s.5,1.12,1.12,1.12h30.89c6.65,0,12.05,5.41,12.05,12.05v36.24c0,.62.5,1.12,1.12,1.12s1.12-.5,1.12-1.12V14.3c0-7.88-6.41-14.3-14.3-14.3Z"/>
      <path class="cls-1" d="M38.57,5.15H9.76C4.38,5.15,0,9.53,0,14.91v36.81c0,5.38,4.38,9.76,9.76,9.76h15.94c2.5.15,5.01.6,6.7,2.06,1.71,1.49,2.7,3.79,3.66,6.01.44,1.02.9,2.07,1.4,3.01,1.66,3.34,3.69,5.03,6.05,5.03.22,0,.45-.02.68-.05,1.24-.15,2.33-.86,3.07-1.98.99-1.5,1.28-3.56.78-5.33-1.27-5.63-6.84-9.16-9.18-10.42-.55-.3-1.23-.09-1.52.46-.29.55-.09,1.23.46,1.52,2.07,1.11,6.99,4.21,8.07,9,.33,1.18.14,2.6-.48,3.54-.39.58-.88.92-1.49.99-1.59.22-3.09-1.05-4.45-3.79-.48-.89-.9-1.85-1.34-2.87-1.06-2.45-2.16-4.98-4.25-6.81-1.87-1.63-4.33-2.26-6.8-2.52-.14-.06-.29-.1-.45-.1h-.82c-1.15-.07-2.28-.08-3.34-.08h-8.62c-.14,0-.27.04-.39.08h-3.69c-4.14,0-7.51-3.37-7.51-7.51v-17.9c.15.08.32.13.5.13h20.29v20.29c0,.62.5,1.12,1.12,1.12s1.12-.5,1.12-1.12v-20.29h20.29c.18,0,.35-.05.5-.13v20.74c0,.62.5,1.07,1.12,1.07s1.12-.56,1.12-1.18V14.91c0-5.38-4.38-9.76-9.76-9.76ZM46.09,31.83c-.15-.08-.32-.13-.5-.13h-20.29V11.4c0-.62-.5-1.12-1.12-1.12s-1.12.5-1.12,1.12v20.29H2.75c-.18,0-.35.05-.5.13V14.91c0-4.14,3.37-7.51,7.51-7.51h28.82c4.14,0,7.51,3.37,7.51,7.51v16.92Z"/>
      <path class="cls-1" d="M18.14,27.35h-8.35c-1.3,0-2.35-1.06-2.35-2.35v-10.04c0-.62-.5-1.12-1.12-1.12s-1.12.5-1.12,1.12v10.04c0,2.54,2.06,4.6,4.6,4.6h8.35c.62,0,1.12-.5,1.12-1.12s-.5-1.12-1.12-1.12Z"/>
      <path class="cls-1" d="M40.31,26.82h-8.35c-1.3,0-2.35-1.06-2.35-2.35v-10.04c0-.62-.5-1.12-1.12-1.12s-1.12.5-1.12,1.12v10.04c0,2.54,2.06,4.6,4.6,4.6h8.35c.62,0,1.12-.5,1.12-1.12s-.5-1.12-1.12-1.12Z"/>
      <path class="cls-1" d="M6.31,37.61c-.62,0-1.12.5-1.12,1.12v10.04c0,2.54,2.06,4.6,4.6,4.6h8.35c.62,0,1.12-.5,1.12-1.12s-.5-1.12-1.12-1.12h-8.35c-1.3,0-2.35-1.06-2.35-2.35v-10.04c0-.62-.5-1.12-1.12-1.12Z"/>
      <path class="cls-1" d="M28.48,37.08c-.62,0-1.12.5-1.12,1.12v10.04c0,2.54,2.06,4.6,4.6,4.6h8.35c.62,0,1.12-.5,1.12-1.12s-.5-1.12-1.12-1.12h-8.35c-1.3,0-2.35-1.06-2.35-2.35v-10.04c0-.62-.5-1.12-1.12-1.12Z"/>
    </g>
  </g>
</svg>