<?xml version="1.0" encoding="UTF-8"?>
<svg id="Layer_2" data-name="Layer 2" xmlns="http://www.w3.org/2000/svg" viewBox="0 0 219.64 209.69">
  <defs>
    <style>
      .cls-1 {
        font-family: Poppins-Regular, Poppins;
        font-size: 14.39px;
      }

      .cls-1, .cls-2 {
        fill: #fff6d2;
      }

      .cls-3 {
        fill: #003d38;
      }

      .cls-4 {
        fill: #0c0502;
      }
    </style>
  </defs>
  <g id="Layer_1-2" data-name="Layer 1">
    <g>
      <path class="cls-4" d="M120.41,4.18l13.92,15.08c2.92,3.16,7.35,4.46,11.51,3.38l19.87-5.16c4.44-1.15,8.93,1.73,9.72,6.25l3.56,20.22c.75,4.24,3.77,7.73,7.86,9.07l19.5,6.4c4.36,1.43,6.57,6.28,4.8,10.51l-7.94,18.93c-1.66,3.97-1.01,8.54,1.71,11.88l12.95,15.93c2.9,3.56,2.14,8.84-1.64,11.44l-16.91,11.64c-3.55,2.44-5.46,6.64-4.98,10.92l2.28,20.4c.51,4.56-2.98,8.59-7.57,8.73l-20.52.64c-4.3.14-8.18,2.63-10.1,6.49l-9.11,18.4c-2.04,4.11-7.15,5.61-11.09,3.26l-17.61-10.55c-3.69-2.21-8.31-2.21-12,0l-17.61,10.55c-3.94,2.36-9.05.86-11.09-3.26l-9.11-18.4c-1.91-3.86-5.79-6.35-10.1-6.49l-20.52-.64c-4.59-.14-8.08-4.17-7.57-8.73l2.28-20.4c.48-4.28-1.44-8.47-4.98-10.92l-16.91-11.64c-3.78-2.6-4.54-7.88-1.64-11.44l12.95-15.93c2.72-3.34,3.37-7.91,1.71-11.88l-7.94-18.93c-1.77-4.23.44-9.08,4.8-10.51l19.5-6.4c4.09-1.34,7.11-4.83,7.86-9.07l3.56-20.22c.8-4.52,5.28-7.4,9.72-6.25l19.87,5.16c4.17,1.08,8.59-.22,11.51-3.38l13.92-15.08c3.11-3.37,8.44-3.37,11.56,0Z"/>
      <path class="cls-3" d="M110.79,2.53l13.92,15.08c2.92,3.16,7.35,4.46,11.51,3.38l19.87-5.16c4.44-1.15,8.93,1.73,9.72,6.25l3.56,20.22c.75,4.24,3.77,7.73,7.86,9.07l19.5,6.4c4.36,1.43,6.57,6.28,4.8,10.51l-7.94,18.93c-1.66,3.97-1.01,8.54,1.71,11.88l12.95,15.93c2.9,3.56,2.14,8.84-1.64,11.44l-16.91,11.64c-3.55,2.44-5.46,6.64-4.98,10.92l2.28,20.4c.51,4.56-2.98,8.59-7.57,8.73l-20.52.64c-4.3.14-8.18,2.63-10.1,6.49l-9.11,18.4c-2.04,4.11-7.15,5.61-11.09,3.26l-17.61-10.55c-3.69-2.21-8.31-2.21-12,0l-17.61,10.55c-3.94,2.36-9.05.86-11.09-3.26l-9.11-18.4c-1.91-3.86-5.79-6.35-10.1-6.49l-20.52-.64c-4.59-.14-8.08-4.17-7.57-8.73l2.28-20.4c.48-4.28-1.44-8.47-4.98-10.92l-16.91-11.64c-3.78-2.6-4.54-7.88-1.64-11.44l12.95-15.93c2.72-3.34,3.37-7.91,1.71-11.88l-7.94-18.93c-1.77-4.23.44-9.08,4.8-10.51l19.5-6.4c4.09-1.34,7.11-4.83,7.86-9.07l3.56-20.22c.8-4.52,5.28-7.4,9.72-6.25l19.87,5.16c4.17,1.08,8.59-.22,11.51-3.38l13.92-15.08c3.11-3.37,8.44-3.37,11.56,0Z"/>
      <g>
        <text class="cls-1" transform="translate(98.26 42.19) rotate(-.93)"><tspan x="0" y="0">M</tspan></text>
        <text class="cls-1" transform="translate(110.8 42.16) rotate(9.77)"><tspan x="0" y="0">a</tspan></text>
        <text class="cls-1" transform="translate(120.56 43.86) rotate(18.98)"><tspan x="0" y="0">d</tspan></text>
        <text class="cls-1" transform="translate(129.92 47.12) rotate(27.82)"><tspan x="0" y="0">e</tspan></text>
        <text class="cls-1" transform="translate(138 51.56) rotate(34)"><tspan x="0" y="0"> </tspan></text>
        <text class="cls-1" transform="translate(141.53 53.65) rotate(41.41)"><tspan x="0" y="0">w</tspan></text>
        <text class="cls-1" transform="translate(150.38 61.83) rotate(48.69)"><tspan x="0" y="0">i</tspan></text>
        <text class="cls-1" transform="translate(152.98 64.76) rotate(53.08)"><tspan x="0" y="0">t</tspan></text>
        <text class="cls-1" transform="translate(156.36 69.08) rotate(59.97)"><tspan x="0" y="0">h</tspan></text>
        <text class="cls-1" transform="translate(160.97 77.37) rotate(66.29)"><tspan x="0" y="0"> </tspan></text>
        <text class="cls-1" transform="translate(162.74 81.12) rotate(72.41)"><tspan x="0" y="0">c</tspan></text>
        <text class="cls-1" transform="translate(165.46 89.64) rotate(81.18)"><tspan x="0" y="0">a</tspan></text>
        <text class="cls-1" transform="translate(166.84 99.54) rotate(88.37)"><tspan x="0" y="0">r</tspan></text>
        <text class="cls-1" transform="translate(167.09 105.18) rotate(95.12)"><tspan x="0" y="0">e</tspan></text>
        <text class="cls-1" transform="translate(166.12 114.33) rotate(101.3)"><tspan x="0" y="0"> </tspan></text>
        <text class="cls-1" transform="translate(165.39 118.42) rotate(107.06)"><tspan x="0" y="0">-</tspan></text>
        <text class="cls-1" transform="translate(162.86 126.27) rotate(112.84)"><tspan x="0" y="0"> </tspan></text>
        <text class="cls-1" transform="translate(161.52 130.14) rotate(120.57)"><tspan x="0" y="0">M</tspan></text>
        <text class="cls-1" transform="translate(155.04 140.86) rotate(130.88)"><tspan x="0" y="0">a</tspan></text>
        <text class="cls-1" transform="translate(148.54 148.34) rotate(139.98)"><tspan x="0" y="0">d</tspan></text>
        <text class="cls-1" transform="translate(140.92 154.68) rotate(148.74)"><tspan x="0" y="0">e</tspan></text>
        <text class="cls-1" transform="translate(132.96 159.33) rotate(154.93)"><tspan x="0" y="0"> </tspan></text>
        <text class="cls-1" transform="translate(129.37 161.29) rotate(162.41)"><tspan x="0" y="0">w</tspan></text>
        <text class="cls-1" transform="translate(117.81 164.66) rotate(169.78)"><tspan x="0" y="0">i</tspan></text>
        <text class="cls-1" transform="translate(113.95 165.37) rotate(174.2)"><tspan x="0" y="0">t</tspan></text>
        <text class="cls-1" transform="translate(108.49 166.03) rotate(-178.98)"><tspan x="0" y="0">h</tspan></text>
        <text class="cls-1" transform="translate(99 165.7) rotate(-172.73)"><tspan x="0" y="0"> </tspan></text>
        <text class="cls-1" transform="translate(94.87 165.29) rotate(-166.62)"><tspan x="0" y="0">c</tspan></text>
        <text class="cls-1" transform="translate(86.17 163.24) rotate(-157.84)"><tspan x="0" y="0">a</tspan></text>
        <text class="cls-1" transform="translate(77.01 159.34) rotate(-150.62)"><tspan x="0" y="0">r</tspan></text>
        <text class="cls-1" transform="translate(72.04 156.65) rotate(-143.77)"><tspan x="0" y="0">e</tspan></text>
        <text class="cls-1" transform="translate(64.7 151.08) rotate(-137.63)"><tspan x="0" y="0"> </tspan></text>
        <text class="cls-1" transform="translate(61.56 148.34) rotate(-131.93)"><tspan x="0" y="0">-</tspan></text>
        <text class="cls-1" transform="translate(56.15 142.14) rotate(-126.23)"><tspan x="0" y="0"> </tspan></text>
        <text class="cls-1" transform="translate(53.51 138.99) rotate(-118.51)"><tspan x="0" y="0">M</tspan></text>
        <text class="cls-1" transform="translate(47.64 127.92) rotate(-108.12)"><tspan x="0" y="0">a</tspan></text>
        <text class="cls-1" transform="translate(44.58 118.5) rotate(-98.91)"><tspan x="0" y="0">d</tspan></text>
        <text class="cls-1" transform="translate(43.14 108.73) rotate(-90.93)"><tspan x="0" y="0">e</tspan></text>
        <text class="cls-1" transform="translate(43.21 99.48) rotate(-84.09)"><tspan x="0" y="0"> </tspan></text>
        <text class="cls-1" transform="translate(43.39 95.37) rotate(-76.62)"><tspan x="0" y="0">w</tspan></text>
        <text class="cls-1" transform="translate(46.44 83.74) rotate(-69.25)"><tspan x="0" y="0">i</tspan></text>
        <text class="cls-1" transform="translate(47.81 80.09) rotate(-64.84)"><tspan x="0" y="0">t</tspan></text>
        <text class="cls-1" transform="translate(50.06 75.05) rotate(-57.9)"><tspan x="0" y="0">h</tspan></text>
        <text class="cls-1" transform="translate(55.23 67.1) rotate(-51.62)"><tspan x="0" y="0"> </tspan></text>
        <text class="cls-1" transform="translate(57.73 63.77) rotate(-45.56)"><tspan x="0" y="0">c</tspan></text>
        <text class="cls-1" transform="translate(63.97 57.38) rotate(-36.9)"><tspan x="0" y="0">a</tspan></text>
        <text class="cls-1" transform="translate(72.05 51.5) rotate(-29.68)"><tspan x="0" y="0">r</tspan></text>
        <text class="cls-1" transform="translate(76.9 48.64) rotate(-22.82)"><tspan x="0" y="0">e</tspan></text>
        <text class="cls-1" transform="translate(85.43 45.21) rotate(-16.61)"><tspan x="0" y="0"> </tspan></text>
        <text class="cls-1" transform="translate(89.39 43.94) rotate(-10.85)"><tspan x="0" y="0">-</tspan></text>
        <text class="cls-1" transform="translate(97.52 42.5) rotate(-5.1)"><tspan x="0" y="0"> </tspan></text>
      </g>
      <g>
        <g>
          <path class="cls-2" d="M109.46,97.85c1.38-1.3,2.2-3.1,2.2-5.03,0-.08,0-.17-.01-.25-.02-.99-.27-1.95-.71-2.8-.39-.83-.97-1.57-1.68-2.17,1.25-1.27,1.99-3.01,1.99-4.83,0-3.81-3.1-6.9-6.9-6.9-1.99,0-3.84.85-5.12,2.29-1.29-1.44-3.13-2.29-5.12-2.29s-3.84.85-5.12,2.29c-1.29-1.44-3.13-2.29-5.12-2.29-3.81,0-6.9,3.09-6.9,6.9,0,1.94.81,3.74,2.2,5.02-1.38,1.3-2.2,3.1-2.2,5.03s.81,3.73,2.2,5.03c-1.38,1.27-2.2,3.08-2.2,5.02s.85,3.84,2.29,5.12c-1.44,1.29-2.29,3.13-2.29,5.12,0,3.8,3.09,6.9,6.9,6.9,1.99,0,3.84-.85,5.12-2.29,1.29,1.44,3.13,2.29,5.12,2.29,1.88,0,3.62-.76,4.9-2.07.07-.06.15-.14.22-.22,1.19,1.33,2.86,2.16,4.69,2.27.14.02.3.02.44.02,3.8,0,6.9-3.1,6.9-6.9,0-.6-.08-1.19-.25-1.76-.07-.34-.19-.66-.33-.98-.35-.81-.87-1.57-1.52-2.2,1.36-1.12,2.25-2.74,2.45-4.51.04-.27.05-.53.05-.8,0-.68-.11-1.36-.3-1.98-.35-1.17-1-2.21-1.9-3.03ZM106.9,98.89c1.48.79,2.4,2.31,2.4,3.98,0,1.79-1.06,3.42-2.7,4.14-.41.19-.68.59-.71,1.04-.01.45.22.87.61,1.09,1.48.8,2.4,2.33,2.4,3.98,0,2.5-2.04,4.54-4.54,4.54-1.42,0-2.7-.65-3.53-1.74-.21-.25-.39-.52-.53-.81-.2-.4-.61-.66-1.06-.66-.33,0-.64.14-.86.38-.08.08-.15.18-.2.28-.77,1.57-2.33,2.55-4.06,2.55s-3.29-.98-4.06-2.55c-.4-.81-1.72-.81-2.12,0-.77,1.57-2.32,2.55-4.06,2.55-2.5,0-4.54-2.04-4.54-4.54,0-1.74.98-3.29,2.55-4.06.4-.2.66-.61.66-1.06s-.26-.86-.66-1.06c-1.57-.78-2.55-2.34-2.55-4.06s.92-3.19,2.41-3.98c.39-.2.63-.6.63-1.04s-.24-.84-.63-1.04c-1.49-.8-2.41-2.34-2.41-3.99s.92-3.19,2.41-3.99c.39-.21.63-.6.63-1.04s-.24-.84-.63-1.04c-1.49-.79-2.41-2.31-2.41-3.98,0-2.5,2.04-4.54,4.54-4.54,1.74,0,3.29.98,4.06,2.55.4.81,1.72.81,2.12,0,.77-1.57,2.33-2.55,4.06-2.55s3.29.98,4.06,2.55c.4.81,1.72.81,2.12,0,.77-1.57,2.33-2.55,4.06-2.55,2.5,0,4.54,2.04,4.54,4.54,0,1.61-.84,3.06-2.24,3.9-.38.22-.59.63-.58,1.06,0,.12.02.24.07.35.09.28.31.52.59.66,1.58.77,2.56,2.34,2.56,4.07v.07c-.02,1.64-.94,3.13-2.41,3.92-.38.2-.61.6-.61,1.04s.24.84.63,1.04Z"/>
          <rect class="cls-2" x="89.29" y="88.72" width="2.79" height="2.79"/>
          <rect class="cls-2" x="97.05" y="88.72" width="2.79" height="2.79"/>
          <rect class="cls-2" x="89.29" y="96.41" width="2.79" height="2.79"/>
          <rect class="cls-2" x="97.05" y="96.41" width="2.79" height="2.79"/>
          <rect class="cls-2" x="89.29" y="104.09" width="2.79" height="2.79"/>
          <rect class="cls-2" x="97.05" y="104.09" width="2.79" height="2.79"/>
        </g>
        <g>
          <path class="cls-2" d="M133.06,115.02c0-1.94-.81-3.74-2.2-5.03,1.38-1.29,2.2-3.09,2.2-5.02,0-2.04-.9-3.93-2.4-5.22,1.25-1.27,1.99-3.01,1.99-4.83,0-3.81-3.1-6.9-6.91-6.9-1.99,0-3.84.85-5.12,2.29-1.29-1.44-3.13-2.29-5.12-2.29-1.72,0-3.33.64-4.57,1.75-.2.17-.38.34-.55.54-1.1-1.23-2.59-2.02-4.24-2.23.09.28.31.52.59.66,1.58.77,2.56,2.34,2.56,4.07v.07s.01.04.02.05c.4.8,1.72.8,2.11,0,.06-.13.13-.25.21-.37.81-1.37,2.27-2.18,3.86-2.18,1.74,0,3.29.97,4.06,2.55.4.8,1.72.8,2.11,0,.78-1.58,2.34-2.55,4.07-2.55,2.5,0,4.54,2.03,4.54,4.54,0,1.61-.84,3.06-2.24,3.9-.38.21-.6.63-.58,1.06.01.42.27.81.66,1,1.58.78,2.56,2.34,2.56,4.08,0,1.65-.92,3.19-2.41,3.99-.38.2-.61.6-.61,1.04s.24.84.63,1.04c1.48.79,2.4,2.31,2.4,3.98,0,1.79-1.06,3.42-2.71,4.14-.41.19-.68.59-.7,1.04-.02.45.21.86.61,1.09,1.48.8,2.4,2.33,2.4,3.98,0,2.5-2.04,4.54-4.54,4.54-1.74,0-3.29-.98-4.07-2.55-.19-.41-.6-.66-1.05-.66s-.86.25-1.06.66c-.77,1.57-2.33,2.55-4.06,2.55s-3.29-.98-4.07-2.55c-.39-.81-1.71-.81-2.11,0-.77,1.57-2.33,2.55-4.06,2.55-2.51,0-4.54-2.04-4.54-4.54,0-1.74.98-3.29,2.55-4.07.4-.19.66-.6.66-1.05,0-.05,0-.11-.01-.15-.05-.39-.3-.73-.65-.91-1.29-.64-2.18-1.81-2.44-3.16-.21-.25-.39-.52-.53-.81-.2-.4-.61-.66-1.06-.66-.33,0-.64.14-.86.38-.01.07-.01.13-.01.2,0,1.04.22,2.03.65,2.93.39.83.94,1.58,1.64,2.2-1.44,1.29-2.29,3.13-2.29,5.12,0,3.8,3.09,6.9,6.91,6.9,1.99,0,3.84-.85,5.12-2.29,1.29,1.44,3.13,2.29,5.12,2.29s3.84-.85,5.12-2.29c1.29,1.44,3.13,2.29,5.12,2.29,3.8,0,6.91-3.1,6.91-6.9,0-1.89-.78-3.66-2.1-4.93,1.56-1.3,2.5-3.23,2.5-5.31ZM99.83,106.88v-2.79h-1.42c-.04.3-.06.59-.06.89,0,.65.09,1.3.28,1.9h1.19ZM99.83,96.41h-1.31c.22,1,.67,1.95,1.31,2.75v-2.75ZM99.83,90.67c-.21.26-.4.54-.57.84h.57v-.84Z"/>
          <rect class="cls-2" x="110.68" y="100.88" width="2.79" height="2.79"/>
          <rect class="cls-2" x="118.44" y="100.88" width="2.79" height="2.79"/>
          <rect class="cls-2" x="110.68" y="108.56" width="2.79" height="2.79"/>
          <rect class="cls-2" x="118.44" y="108.56" width="2.79" height="2.79"/>
          <rect class="cls-2" x="110.68" y="116.25" width="2.79" height="2.79"/>
          <rect class="cls-2" x="118.44" y="116.25" width="2.79" height="2.79"/>
        </g>
      </g>
    </g>
  </g>
</svg>